Coordinates
version=1
nRows=19
nColumns=24
inDegrees=yes

Units are S.I. units (second, meters, Newtons, ...)
Angles are in degrees.

endheader
time	pelvis_tilt	pelvis_list	pelvis_rotation	pelvis_tx	pelvis_ty	pelvis_tz	hip_flexion_r	hip_adduction_r	hip_rotation_r	knee_angle_r	ankle_angle_r	subtalar_angle_r	mtp_angle_r	hip_flexion_l	hip_adduction_l	hip_rotation_l	knee_angle_l	ankle_angle_l	subtalar_angle_l	mtp_angle_l	lumbar_extension	lumbar_bending	lumbar_rotation
      0.74550000	     -5.14193119	      2.20919815	      1.11026719	     -0.38814924	      1.06597738	      0.33652524	     17.25374826	      0.99052743	     -1.22406025	    -20.36554391	     10.29132476	     -4.11114528	      5.51261343	     23.69480702	     -3.06271981	     -3.99228831	    -70.79650357	     11.35033013	     11.69516760	      4.07721584	    -10.66707527	      3.08008765	      2.29930226
      0.74966667	     -5.10797233	      2.29952266	      0.94500698	     -0.38305360	      1.06688648	      0.33711724	     16.77883055	      0.96101300	     -1.08593978	    -20.05806042	     10.38222144	     -4.05529527	      5.49316257	     24.12040096	     -3.05412415	     -4.15057313	    -70.32229176	     11.57952740	     11.95144155	      4.08881796	    -10.68501372	      2.92175676	      2.53094464
      0.75383333	     -5.08425849	      2.40102619	      0.77002946	     -0.37796665	      1.06775198	      0.33772278	     16.32138579	      0.91873073	     -0.94325751	    -19.75995922	     10.45012511	     -3.97786854	      5.48472196	     24.54358426	     -3.04190585	     -4.33513176	    -69.80723273	     11.79227172	     12.12148384	      4.09738015	    -10.68456715	      2.76585252	      2.62218760
      0.75800000	     -5.03705993	      2.50828650	      0.58925150	     -0.37291282	      1.06862176	      0.33834043	     15.84021765	      0.87274494	     -0.77257664	    -19.46025202	     10.54046895	     -3.93098562	      5.47253357	     24.92878345	     -3.02524255	     -4.51840769	    -69.24897689	     11.98405580	     12.32030421	      4.10744683	    -10.73495296	      2.60250039	      2.80493431
      0.76216667	     -5.02060276	      2.60021638	      0.41853647	     -0.36783609	      1.06940231	      0.33895295	     15.38388291	      0.84002033	     -0.60991693	    -19.14525429	     10.61807961	     -3.91632566	      5.44707122	     25.34154868	     -3.02532646	     -4.69304585	    -68.66600050	     12.13863987	     12.44508277	      4.12059555	    -10.73295567	      2.42882480	      3.08153737
      0.76633333	     -5.00330663	      2.71057144	      0.23126951	     -0.36278297	      1.07014668	      0.33957849	     14.94147354	      0.78663729	     -0.43971242	    -18.85478958	     10.69325864	     -3.85441028	      5.43737956	     25.73677739	     -3.01269155	     -4.89254796	    -68.03925894	     12.28415571	     12.52766143	      4.12778639	    -10.73317673	      2.26364524	      3.16026412
      0.77050000	     -4.96593526	      2.80898830	      0.05261426	     -0.35774825	      1.07089645	      0.34018396	     14.47136312	      0.74361779	     -0.26177911	    -18.55020227	     10.77632054	     -3.84537260	      5.41906571	     26.10103499	     -3.00810589	     -5.07549744	    -67.37747845	     12.40736174	     12.60392450	      4.13708154	    -10.76268241	      2.11087279	      3.36696365
      0.77466667	     -4.94017423	      2.90569112	     -0.12152312	     -0.35271095	      1.07158424	      0.34079743	     14.01212408	      0.70034526	     -0.08874660	    -18.24139271	     10.85693719	     -3.83774908	      5.39724236	     26.46945686	     -3.00678785	     -5.25671960	    -66.68825676	     12.50522663	     12.62453625	      4.14605745	    -10.77419308	      1.93781848	      3.56234888
      0.77883333	     -4.95248813	      3.00230530	     -0.30330469	     -0.34767871	      1.07215632	      0.34141512	     13.60390586	      0.65486287	      0.08747461	    -17.94980393	     10.92593938	     -3.78480106	      5.38675050	     26.86759610	     -3.01018118	     -5.44718104	    -65.97051845	     12.60049463	     12.61304780	      4.15024748	    -10.74362822	      1.77615932	      3.64704980
      0.78300000	     -4.92491590	      3.10381273	     -0.47305816	     -0.34266792	      1.07277835	      0.34199744	     13.14793032	      0.59903223	      0.25988361	    -17.64890840	     11.01683136	     -3.80109061	      5.36046722	     27.21003263	     -2.99588298	     -5.61671669	    -65.20826921	     12.64790439	     12.55764890	      4.15790420	    -10.75985202	      1.60249157	      3.88757669
      0.78716667	     -4.92223175	      3.21198834	     -0.65059249	     -0.33765873	      1.07331531	      0.34258069	     12.72953919	      0.53332254	      0.43332902	    -17.36709850	     11.09960017	     -3.76632092	      5.34270216	     27.56399203	     -2.97761334	     -5.79714677	    -64.41235041	     12.69897146	     12.48516784	      4.16177209	    -10.74591047	      1.44674012	      4.00098562
      0.79133333	     -4.92210912	      3.29632131	     -0.81613791	     -0.33266336	      1.07378000	      0.34314429	     12.31070535	      0.48931567	      0.59594420	    -17.07919220	     11.18563882	     -3.73824707	      5.32815861	     27.92020561	     -2.98134498	     -5.95834744	    -63.60703954	     12.73301730	     12.37789449	      4.16337200	    -10.73483926	      1.30087429	      4.11263048
      0.79550000	     -4.92331815	      3.39551228	     -0.97449382	     -0.32766416	      1.07423159	      0.34368208	     11.89506234	      0.42386522	      0.74945432	    -16.79575889	     11.27741946	     -3.71711392	      5.31326538	     28.25920653	     -2.95787379	     -6.10699730	    -62.75403547	     12.74036869	     12.23350050	      4.16319055	    -10.71879049	      1.14386612	      4.23539042
      0.79966667	     -4.92025289	      3.48506063	     -1.12958777	     -0.32269540	      1.07464458	      0.34419318	     11.47751233	      0.36507517	      0.89908563	    -16.51380349	     11.37210492	     -3.69998937	      5.29469772	     28.58580521	     -2.93931570	     -6.24432744	    -61.87515883	     12.72815918	     12.05157965	      4.16205385	    -10.71170312	      1.00077176	      4.37765819
      0.80383333	     -4.92375471	      3.57520706	     -1.27534727	     -0.31772522	      1.07500313	      0.34467821	     11.06957990	      0.30024199	      1.03569985	    -16.23864075	     11.47211565	     -3.67286172	      5.27615633	     28.90869765	     -2.91176751	     -6.36729350	    -60.96954177	     12.70074760	     11.84666234	      4.15950804	    -10.69987622	      0.85482089	      4.49656382
      0.80800000	     -4.92101679	      3.65440375	     -1.41688973	     -0.31278134	      1.07531864	      0.34514589	     10.65734679	      0.24396173	      1.16490549	    -15.96605165	     11.57590808	     -3.64177969	      5.25797462	     29.21682041	     -2.89027526	     -6.47615727	    -60.04177221	     12.66044714	     11.61866896	      4.15538808	    -10.69943288	      0.72624989	      4.60388672
      0.81216667	     -4.94174587	      3.72113601	     -1.54211721	     -0.30783559	      1.07554601	      0.34555850	     10.27027446	      0.19493856	      1.27555988	    -15.69617248	     11.68950889	     -3.61311267	      5.22495768	     29.54401852	     -2.86747807	     -6.55355940	    -59.09551282	     12.60211773	     11.35701719	      4.15058750	    -10.67639337	      0.60838457	      4.75161571
      0.81633333	     -4.95677495	      3.79455292	     -1.67698072	     -0.30290407	      1.07574808	      0.34597978	      9.88588510	      0.13777026	      1.39553463	    -15.44005386	     11.79381074	     -3.57492507	      5.20713841	     29.84777195	     -2.84097872	     -6.64272752	    -58.11583028	     12.53689833	     11.10365279	      4.14285726	    -10.65616848	      0.49691825	      4.80291711
      0.82050000	     -4.95438828	      3.86026962	     -1.79686597	     -0.29798657	      1.07594631	      0.34634429	      9.48036334	      0.08089389	      1.49285992	    -15.18025414	     11.90701774	     -3.53535893	      5.18896645	     30.12280215	     -2.80416435	     -6.69991083	    -57.10890466	     12.44739628	     10.80760152	      4.13270288	    -10.66539012	      0.39154982	      4.86673480
